<svg id="Layer_1" enable-background="new 0 0 509.881 509.881" height="512" viewBox="0 0 509.881 509.881" width="512" xmlns="http://www.w3.org/2000/svg"><g><path d="m90 148.962v-70.542l38.183 10.048 7.635-29.012-75.818-19.952v67.038c-29.214-10.362-60 11.433-60 42.42 0 24.813 20.187 45 45 45s45-20.187 45-45z"/><path d="m435 339.415v82.127c-29.237-10.369-60 11.456-60 42.42 0 24.814 20.186 45 45 45 24.813 0 45-20.186 45-45v-85.453l37.119 9.942 7.762-28.978z"/><path d="m398.872 365.122-25.05-25.05c-21.279-21.278-55.902-21.278-77.181.001l-126.5 126.501c-17.546 17.546-46.094 17.546-63.64 0l-23.228-23.228c-10.563-10.563-11.135-27.385-1.728-38.633 16.704 7.899 37.299 4.958 51.095-8.838l-63.64-63.64c-13.845 13.845-16.755 34.536-8.751 51.271-21.037 22.987-20.438 58.804 1.81 81.052l23.228 23.228c29.243 29.243 76.823 29.243 106.066 0l126.501-126.501c9.582-9.582 25.173-9.582 34.754-.001l25.05 25.05z"/><path d="m76.508 297.317c19.996 19.996 70.645 70.646 91.042 91.042 10.481-.38 20.878-4.235 29.282-11.65l147.298-129.968c-13.611-13.611-112.628-112.628-125.995-125.995l-129.982 147.313c-7.41 8.398-11.263 18.786-11.645 29.258zm162.199-92.36 21.213 21.213-31.82 31.82-21.213-21.213z"/><path d="m429.625 35.251c-43.196-43.197-111.401-46.51-158.438-9.945l168.383 168.382c36.565-47.036 33.251-115.241-9.945-158.437z"/><path d="m376.608 236.793c14.892-4.289 29.057-11.67 41.809-21.831l-168.502-168.503c-10.161 12.752-17.542 26.917-21.831 41.809 5.416 5.416 143.626 143.627 148.524 148.525z"/></g></svg>